<!-- Generated by IcoMoon.io -->
<svg version="1.1" xmlns="http://www.w3.org/2000/svg" width="33" height="32" viewBox="0 0 33 32">
<title>uolparkinson</title>
<path d="M13.18 31.464c-0.010-0.107 0.007-0.215 0.007-0.322 0-3.743-0-7.485-0.006-11.228-0-0.219 0.129-0.221 0.28-0.221 1.259 0 2.518-0 3.777 0 0.619 0 1.238 0.002 1.858-0 0.291-0.001 0.325 0.030 0.325 0.327-0 3.185-0 6.369 0 9.554 0 0.619 0.004 1.238 0.017 1.873-2.072 0.016-4.156 0.016-6.258 0.016zM14.999 21.847c-0.239 0.294-0.428 0.612-0.467 1-0.068 0.67 0.164 1.211 0.693 1.628 0.455 0.359 0.977 0.462 1.518 0.312 0.729-0.202 1.167-0.708 1.317-1.455 0.139-0.69-0.342-1.593-0.992-1.867-0.763-0.322-1.444-0.198-2.070 0.382z"></path>
<path d="M19.836 31.464c-0.009-0.079 0.011-0.158 0.011-0.237 0.001-3.388 0.001-6.776 0.001-10.164-0-0.226 0.049-0.272 0.274-0.272 0.966 0.001 1.932 0.001 2.898 0.001 0.223-0 0.276 0.049 0.275 0.249-0.005 0.939-0.008 1.877-0.009 2.816-0.001 1.496 0.001 2.993 0.001 4.489-0 1.027-0.001 2.054-0 3.1-1.143 0.019-2.287 0.019-3.45 0.019z"></path>
<path d="M12.63 31.464c-1.076 0-2.152 0-3.257-0.017-0.030-0.085-0.034-0.153-0.034-0.221 0-3.319 0-6.639 0.001-9.958 0-0.408 0.001-0.408 0.405-0.409 0.891-0 1.782 0.002 2.673-0.002 0.162-0.001 0.23 0.048 0.23 0.223-0.004 2.68-0.002 5.36-0.004 8.040-0.001 0.782-0.010 1.563-0.015 2.345z"></path>
<path d="M21.202 5.866c0.030 0.085 0.086 0.169 0.086 0.254 0.007 1.177 0.008 2.354 0.009 3.531 0 0.047-0.003 0.095-0.010 0.142-0.023 0.143 0.048 0.205 0.18 0.208 0.136 0.004 0.272 0.001 0.408 0.001 0.137-0.001 0.186 0.062 0.186 0.203-0.004 2.388-0.003 4.776-0.003 7.164 0 0.082-0.001 0.163 0 0.245 0.003 0.315 0.004 0.307 0.313 0.361 0.061 0.011 0.151 0.11 0.151 0.169 0.011 0.68 0.009 1.361 0.006 2.041-0 0.122-0.071 0.181-0.198 0.181-0.768-0.002-1.536-0-2.304-0.002-0.144-0-0.179-0.101-0.179-0.222-0-0.197 0-0.395 0.002-0.592 0.002-0.26-0.015-0.283-0.274-0.283-1.245-0.002-2.49-0-3.735-0.001-0.952-0-1.905-0.001-2.857-0.004-0.245-0.001-0.287 0.037-0.288 0.28-0.001 0.191-0.004 0.381 0.001 0.571 0.005 0.168-0.057 0.252-0.236 0.251-0.734-0.004-1.469-0.005-2.203-0.001-0.16 0.001-0.22-0.070-0.22-0.221 0.002-0.653 0.003-1.306 0-1.959-0.001-0.157 0.063-0.218 0.221-0.215 0.253 0.004 0.27-0.030 0.27-0.282-0.002-1.728-0-3.456-0.001-5.184-0-0.762 0.001-1.524-0.006-2.286-0.002-0.164 0.069-0.222 0.218-0.22 0.088 0.001 0.177-0 0.294-0.002 0.048-0.006 0.066-0.011 0.085-0.016 0.138 0.029 0.162-0.055 0.162-0.163-0.005-1.242-0.012-2.485-0.009-3.727 0-0.066 0.079-0.132 0.147-0.204 2.824-0.004 5.623-0.003 8.421-0.004 0.454-0 0.909-0.011 1.363-0.017zM13.347 14.782c-0.003-0.612-0.004-1.224-0.010-1.835-0.002-0.147 0.061-0.213 0.206-0.212 0.258 0.002 0.517-0.007 0.775 0.007 0.2 0.011 0.271-0.074 0.264-0.262-0.006-0.163-0.001-0.326-0.001-0.489-0-0.259-0.053-0.301-0.313-0.296-0.394 0.008-0.788 0.012-1.182 0.002-0.334-0.009-0.377 0.022-0.377 0.361 0.002 1.883 0.006 3.766 0.008 5.649 0 0.271 0.026 0.294 0.349 0.293 0.258-0 0.283-0.029 0.282-0.299-0.001-0.959-0.001-1.918-0.001-2.917zM16.325 10.296c-0.762-0-1.524-0-2.286-0.001-0.68-0-1.361-0.003-2.041 0.003-0.056 0.001-0.155 0.055-0.159 0.092-0.015 0.153 0.325 0.48 0.48 0.48 2.558-0 5.116-0.008 7.674 0.007 0.324 0.002 0.552-0.075 0.709-0.351 0.031-0.055 0.049-0.118 0.072-0.177-0.062-0.018-0.123-0.051-0.185-0.051-1.408-0.003-2.816-0.002-4.265-0.002zM18.624 15.925c-0-0.681 0.001-1.361-0.001-2.042-0.001-0.299 0.009-0.6-0.017-0.897-0.014-0.159 0.036-0.193 0.172-0.191 0.286 0.003 0.572-0.005 0.857 0.004 0.188 0.006 0.259-0.082 0.259-0.256-0.001-0.191 0.001-0.381 0.001-0.572-0.001-0.301-0.043-0.346-0.338-0.347-0.47-0.001-0.939-0.001-1.409 0-0.268 0.001-0.332 0.057-0.327 0.32 0.009 0.454 0.037 0.909 0.039 1.363 0.005 1.483 0.001 2.967 0.004 4.45 0 0.071 0.013 0.152 0.049 0.21 0.058 0.094 0.44 0.162 0.556 0.073 0.084-0.065 0.146-0.21 0.148-0.32 0.014-0.585 0.006-1.17 0.006-1.796zM15.252 16.783c-0 0.306 0 0.612-0.001 0.918-0.002 0.294 0.062 0.36 0.355 0.362 0.392 0.003 0.408-0.011 0.408-0.347-0-1.462-0-2.924-0.001-4.386-0-0.109 0.013-0.221-0.010-0.325-0.035-0.163 0.028-0.209 0.178-0.206 0.258 0.005 0.517-0.006 0.775 0.003 0.178 0.006 0.293-0.042 0.293-0.243 0-0.208 0.023-0.417 0.003-0.623-0.031-0.316-0.042-0.315-0.367-0.314-0.408 0.001-0.816 0-1.224 0.001-0.365 0-0.41 0.044-0.41 0.407-0.001 1.571-0 3.142-0 4.754zM16.795 6.911c0.014-0.186-0.101-0.259-0.26-0.269-0.176-0.011-0.353-0.006-0.53-0.001-0.172 0.004-0.263 0.096-0.264 0.269-0.001 0.353-0.006 0.707 0.003 1.060 0.005 0.212 0.1 0.287 0.307 0.292 0.203 0.005 0.23-0.144 0.242-0.286 0.014-0.169-0.008-0.341 0.010-0.508 0.006-0.052 0.085-0.132 0.138-0.138 0.323-0.033 0.349-0.054 0.353-0.418zM14.937 7.284c0.263 0.008 0.298-0.024 0.305-0.278 0.002-0.054 0.022-0.12-0.002-0.16-0.038-0.065-0.102-0.156-0.161-0.161-0.222-0.019-0.448-0.021-0.67 0.002-0.064 0.006-0.166 0.112-0.169 0.176-0.015 0.372-0.011 0.745-0.002 1.118 0.004 0.156 0.086 0.253 0.259 0.246 0.165-0.007 0.249-0.087 0.247-0.255-0.002-0.176 0.001-0.353-0-0.529-0.001-0.106 0.039-0.17 0.192-0.159zM17.335 6.749c-0.014 0.052-0.040 0.104-0.039 0.155 0.006 0.358 0.028 0.717 0.025 1.075-0.002 0.18 0.067 0.272 0.238 0.279 0.174 0.007 0.235-0.116 0.247-0.263 0.011-0.141 0.014-0.285 0.002-0.427-0.016-0.186 0.051-0.255 0.241-0.251 0.082 0.002 0.22-0.061 0.237-0.121 0.037-0.132 0.032-0.285 0.004-0.421-0.011-0.056-0.121-0.12-0.193-0.13-0.153-0.020-0.312-0.016-0.467-0.002-0.094 0.008-0.185 0.051-0.296 0.107z"></path>
<path d="M14.691 1.441c0.486-0.3 0.957-0.598 1.438-0.878 0.073-0.043 0.218-0.032 0.296 0.012 0.628 0.365 1.247 0.744 1.87 1.118 0.349 0.209 0.699 0.416 1.047 0.625 0.055 0.033 0.104 0.076 0.149 0.155-2.134 0.049-4.262 0.036-6.398 0.044 0.043-0.143 1.035-0.798 1.6-1.077z"></path>
<path d="M21.923 9.82c0.049 0.006 0.081 0.011 0.113 0.017 0 0.012 0 0.025 0 0.038-0.2 0-0.401 0-0.601 0-0-0.018-0.001-0.037-0.001-0.055 0.069 0 0.138-0 0.207 0 0.088 0 0.176 0 0.282 0z"></path>
<path d="M12.603 5.015c0.080-0.61 0.158-1.202 0.232-1.795 0.021-0.171 0.098-0.241 0.281-0.24 2.095 0.007 4.191 0.006 6.286 0.007 0.263 0 0.287 0.021 0.324 0.277 0.086 0.598 0.174 1.195 0.262 1.793 0.043 0.291 0.017 0.324-0.263 0.324-2.286 0-4.572-0-6.858 0.001-0.346 0-0.35-0.004-0.265-0.366z"></path>
<path d="M18.013 17.886c0.127-0.015 0.26-0.015 0.413-0.007-0.123 0.012-0.265 0.018-0.413 0.007z"></path>
<path d="M17.157 22.115c0.397 0.409 0.463 0.897 0.327 1.402-0.080 0.297-0.314 0.53-0.589 0.672-0.472 0.244-0.939 0.194-1.374-0.113-0.445-0.314-0.601-1.048-0.363-1.541 0.306-0.636 0.875-0.798 1.448-0.699 0.189 0.033 0.359 0.178 0.55 0.28z"></path>
</svg>
